<?xml version="1.0" standalone="no"?>
<!DOCTYPE svg PUBLIC "-//W3C//DTD SVG 20010904//EN"
 "http://www.w3.org/TR/2001/REC-SVG-20010904/DTD/svg10.dtd">
<svg version="1.0" xmlns="http://www.w3.org/2000/svg"
 width="300.000000pt" height="248.000000pt" viewBox="0 0 300.000000 248.000000"
 preserveAspectRatio="xMidYMid meet">
<metadata>
Created by potrace 1.10, written by Peter Selinger 2001-2011
</metadata>
<g transform="translate(0.000000,248.000000) scale(0.100000,-0.100000)"
fill="#fff" stroke="none">
<path d="M654 2236 c-46 -20 -102 -74 -126 -120 -19 -36 -23 -66 -29 -226 -10
-260 -43 -395 -123 -503 -23 -32 -85 -71 -129 -81 -26 -6 -27 -9 -27 -69 l0
-63 44 -12 c148 -39 221 -220 234 -577 7 -167 9 -184 33 -230 28 -56 91 -109
147 -125 50 -14 1593 -14 1643 0 47 13 124 81 151 134 19 36 22 66 29 236 9
216 23 301 69 399 46 97 127 171 190 171 18 0 20 6 20 65 l0 64 -40 11 c-66
18 -121 68 -161 147 -53 106 -70 198 -78 418 -6 167 -10 195 -29 231 -32 63
-67 100 -117 123 -44 21 -51 21 -857 21 -657 -1 -819 -3 -844 -14z m1647 -16
c20 -6 52 -24 70 -40 19 -16 37 -30 42 -30 4 0 7 -6 7 -14 0 -8 3 -16 8 -18 4
-1 14 -16 23 -33 13 -22 17 -59 18 -145 2 -178 23 -327 61 -435 12 -33 24 -68
27 -77 3 -10 9 -18 14 -18 5 0 9 -5 9 -12 0 -20 87 -96 117 -102 35 -8 56 -47
43 -82 -6 -15 -26 -32 -53 -43 -54 -23 -121 -98 -143 -159 -9 -26 -20 -56 -24
-67 -22 -54 -43 -207 -49 -365 -5 -126 -11 -182 -21 -200 -27 -44 -94 -107
-129 -118 -24 -9 -256 -12 -828 -12 -878 0 -829 -4 -894 66 -68 75 -71 82 -75
221 -5 188 -13 269 -36 358 -37 149 -91 228 -195 286 -58 32 -66 60 -28 95 14
13 30 24 36 24 16 0 24 3 36 16 7 7 24 21 37 31 31 25 79 112 105 193 29 93
40 177 47 356 3 104 10 169 20 192 19 47 98 118 143 130 50 14 1565 15 1612 2z"/>
<path d="M1177 1809 c-33 -4 -65 -13 -73 -21 -12 -12 -14 -102 -14 -558 0
-508 1 -545 18 -562 16 -16 42 -18 282 -18 245 -1 270 1 330 21 84 27 108 40
151 81 41 37 69 86 80 138 4 19 9 44 12 55 7 27 -16 164 -32 195 -16 29 -71
90 -83 90 -4 0 -17 9 -27 19 -20 20 -19 20 9 53 38 43 70 104 70 133 0 13 5
27 11 30 11 7 10 63 -2 80 -4 6 -9 24 -12 40 -6 49 -23 79 -69 127 -36 38 -65
57 -88 60 -3 0 -15 4 -28 9 -41 16 -145 29 -232 29 -113 0 -178 1 -215 3 -16
1 -56 -1 -88 -4z m545 -61 c105 -49 158 -132 158 -248 0 -102 -77 -210 -162
-227 -38 -8 -35 -23 5 -23 49 0 133 -54 167 -106 89 -141 50 -321 -91 -409
-75 -48 -122 -54 -407 -55 l-267 -1 -3 551 -2 551 272 -3 c271 -3 273 -3 330
-30z"/>
<path d="M1290 1472 l0 -165 138 5 c160 6 218 24 251 79 44 73 30 167 -31 211
-31 22 -43 23 -260 31 l-98 4 0 -165z m302 119 c57 -22 91 -79 81 -133 -8 -44
-60 -98 -94 -98 -16 0 -29 -4 -29 -10 0 -6 -41 -10 -103 -10 -97 0 -104 1
-115 23 -17 31 -12 207 6 228 11 13 33 15 120 13 59 -1 119 -7 134 -13z"/>
<path d="M1290 1000 l0 -182 163 4 c145 3 167 6 209 26 65 32 88 72 88 153 0
67 -13 99 -54 129 -45 34 -93 43 -248 48 l-158 4 0 -182z m333 131 c67 -31
107 -82 107 -136 0 -25 -4 -45 -9 -45 -6 0 -16 -12 -23 -27 -7 -14 -22 -31
-33 -37 -11 -6 -23 -15 -27 -20 -3 -5 -70 -11 -148 -13 -115 -3 -144 -1 -156
12 -12 11 -14 40 -13 135 0 66 5 120 10 120 5 0 9 6 9 14 0 11 24 14 120 15
100 1 127 -2 163 -18z"/>
</g>
</svg>
