<?xml version="1.0" standalone="no"?>
<!DOCTYPE svg PUBLIC "-//W3C//DTD SVG 20010904//EN"
 "http://www.w3.org/TR/2001/REC-SVG-20010904/DTD/svg10.dtd">
<svg version="1.0" xmlns="http://www.w3.org/2000/svg"
 width="200.000000pt" height="200.000000pt" viewBox="0 0 200.000000 200.000000"
 preserveAspectRatio="xMidYMid meet">
<metadata>
Created by potrace 1.10, written by Peter Selinger 2001-2011
</metadata>
<g transform="translate(0.000000,200.000000) scale(0.100000,-0.100000)"
fill="#fff" stroke="none">
<path d="M214 1145 c-47 -24 -68 -70 -62 -139 6 -76 35 -107 107 -114 47 -4
53 -2 86 31 19 19 35 40 35 46 0 20 -34 12 -55 -13 -41 -50 -135 -26 -135 34
0 19 7 20 95 20 106 0 111 4 81 73 -28 66 -92 92 -152 62z m101 -50 c39 -38
32 -45 -50 -45 -82 0 -90 7 -53 47 29 31 72 30 103 -2z"/>
<path d="M770 1153 c-8 -3 -23 -12 -32 -21 -16 -14 -18 -13 -18 1 0 10 -8 17
-20 17 -19 0 -20 -7 -20 -180 0 -173 1 -180 20 -180 18 0 20 7 20 71 l0 70 26
-20 c72 -57 174 7 174 109 0 39 -21 90 -47 113 -22 19 -78 30 -103 20z m81
-59 c30 -32 33 -97 6 -137 -14 -22 -25 -27 -57 -27 -51 0 -80 35 -80 97 0 83
78 123 131 67z"/>
<path d="M1039 1131 l-29 -29 0 24 c0 17 -6 24 -20 24 -19 0 -20 -7 -20 -131
0 -128 0 -130 22 -127 20 3 22 8 19 66 -4 102 22 152 78 152 16 0 21 6 21 25
0 35 -34 33 -71 -4z"/>
<path d="M1193 1146 c-78 -35 -91 -168 -23 -228 42 -38 106 -39 149 -2 17 14
31 34 31 45 0 27 -33 24 -45 -3 -26 -58 -135 -29 -135 36 0 13 15 16 95 16
106 0 111 4 81 73 -27 65 -90 91 -153 63z m82 -32 c8 -4 22 -19 31 -35 l15
-29 -76 0 c-82 0 -90 7 -53 47 21 23 51 29 83 17z"/>
<path d="M1433 1146 c-37 -17 -51 -55 -35 -91 8 -18 29 -29 82 -45 39 -12 74
-28 77 -36 9 -24 -21 -46 -63 -46 -30 0 -43 6 -60 27 -14 17 -28 26 -37 22
-22 -8 -10 -43 22 -68 21 -17 36 -20 85 -17 66 5 96 29 96 78 0 36 -23 55 -92
75 -66 19 -87 37 -68 60 18 22 73 19 95 -5 19 -20 55 -27 55 -11 0 6 -10 22
-23 36 -27 32 -88 42 -134 21z"/>
<path d="M1680 1143 c-28 -14 -36 -25 -38 -51 -5 -46 9 -59 90 -83 65 -19 69
-22 66 -46 -2 -19 -11 -29 -28 -33 -36 -10 -88 7 -95 30 -8 24 -45 27 -45 4 0
-8 13 -29 29 -45 25 -25 37 -29 81 -29 44 0 56 4 81 29 51 51 29 100 -53 121
-63 16 -88 28 -88 43 0 39 80 53 102 17 17 -27 58 -27 51 -1 -14 53 -93 75
-153 44z"/>
<path d="M446 1090 l46 -59 -46 -65 c-25 -35 -46 -67 -46 -70 0 -3 10 -6 23
-6 17 0 31 14 56 55 18 30 35 55 37 55 2 0 19 -25 39 -55 27 -43 40 -55 60
-55 14 0 25 2 25 5 0 3 -22 35 -50 72 l-49 65 45 59 c45 58 45 59 19 59 -19 0
-34 -11 -57 -45 l-32 -45 -29 45 c-24 36 -35 45 -58 45 l-29 0 46 -60z"/>
</g>
</svg>
