<?xml version="1.0" standalone="no"?>
<!DOCTYPE svg PUBLIC "-//W3C//DTD SVG 20010904//EN"
 "http://www.w3.org/TR/2001/REC-SVG-20010904/DTD/svg10.dtd">
<svg version="1.0" xmlns="http://www.w3.org/2000/svg"
 width="200.000000pt" height="200.000000pt" viewBox="0 0 200.000000 200.000000"
 preserveAspectRatio="xMidYMid meet">
<metadata>
Created by potrace 1.10, written by Peter Selinger 2001-2011
</metadata>
<g transform="translate(0.000000,200.000000) scale(0.100000,-0.100000)"
fill="#ffffff" stroke="none">
<path d="M1222 1528 c-18 -18 -15 -31 17 -74 15 -22 34 -58 41 -79 7 -22 19
-49 26 -61 11 -16 11 -31 2 -75 -10 -48 -9 -59 10 -102 26 -58 57 -65 70 -14
l9 32 15 -30 c18 -34 88 -104 88 -89 0 6 -11 21 -25 34 -31 29 -75 103 -75
126 0 33 -28 -6 -35 -49 -7 -38 -9 -39 -21 -22 -22 29 -27 82 -14 129 10 37
10 47 -4 68 -8 13 -22 42 -30 66 -8 23 -27 58 -42 78 -39 51 -20 65 42 30 25
-14 59 -26 74 -26 36 0 129 -63 170 -115 17 -22 49 -78 71 -126 39 -83 42 -87
92 -108 29 -12 63 -30 76 -40 l24 -18 -46 -7 c-55 -8 -66 -21 -41 -47 27 -26
134 -89 134 -79 0 9 -81 75 -103 84 -20 8 14 26 51 26 17 0 32 4 32 9 0 14
-70 69 -118 92 -39 19 -47 30 -87 115 -30 66 -58 108 -94 144 -48 48 -137 100
-171 100 -9 0 -33 9 -55 20 -45 23 -66 25 -83 8z"/>
<path d="M1340 1433 c1 -18 28 -44 35 -33 4 6 1 17 -5 25 -13 16 -30 20 -30 8z"/>
<path d="M152 988 c-8 -8 -12 -52 -12 -130 l0 -118 31 0 31 0 -4 109 c-2 60
-1 107 2 105 3 -3 25 -51 50 -107 l46 -102 39 0 40 0 42 85 c23 47 42 93 42
103 1 9 6 17 12 17 7 0 9 -35 7 -105 l-3 -105 28 0 27 0 0 125 c0 123 0 125
-24 131 -63 16 -72 6 -132 -136 -15 -36 -31 -69 -34 -73 -4 -5 -21 27 -39 70
-49 121 -65 143 -104 143 -18 0 -38 -5 -45 -12z m31 -23 c-3 -9 -8 -14 -10
-11 -3 3 -2 9 2 15 9 16 15 13 8 -4z m324 -177 c-3 -8 -6 -5 -6 6 -1 11 2 17
5 13 3 -3 4 -12 1 -19z"/>
<path d="M953 993 c-17 -2 -36 -10 -41 -16 -9 -11 -16 -54 -13 -84 2 -21 44
-37 116 -42 67 -6 70 -7 73 -33 5 -39 -25 -51 -116 -46 -67 3 -75 1 -78 -15
-2 -17 5 -18 106 -15 89 2 112 6 129 22 26 24 27 70 2 95 -19 19 -125 40 -138
28 -3 -4 -14 -2 -25 4 -13 7 -18 19 -16 37 l3 27 98 3 c89 2 97 4 97 22 0 18
-7 20 -82 18 -46 0 -97 -3 -115 -5z m-26 -80 c-3 -10 -5 -4 -5 12 0 17 2 24 5
18 2 -7 2 -21 0 -30z"/>
<path d="M1500 892 c0 -143 2 -146 146 -150 96 -4 104 -2 104 15 0 16 -9 18
-90 18 -70 0 -93 4 -101 15 -5 8 -8 59 -7 113 l3 97 -27 0 -28 0 0 -108z"/>
<path d="M1200 970 c-17 -17 -20 -33 -20 -104 0 -79 2 -86 26 -105 21 -17 41
-21 99 -21 58 0 75 -4 89 -19 17 -18 86 -34 86 -20 0 4 -12 17 -27 28 -26 19
-26 22 -10 32 14 8 17 25 17 104 0 124 -1 125 -136 125 -91 0 -107 -3 -124
-20z m208 -102 c1 -49 -1 -88 -6 -88 -5 0 -17 9 -27 20 -12 13 -31 20 -54 20
l-36 0 30 -25 30 -24 -33 -1 c-63 0 -72 11 -72 100 0 53 4 80 13 84 6 2 44 4
82 3 l70 -2 3 -87z m2 -108 c0 -5 -5 -10 -11 -10 -5 0 -7 5 -4 10 3 6 8 10 11
10 2 0 4 -4 4 -10z"/>
<path d="M580 853 c0 -38 4 -73 8 -80 13 -21 62 -33 137 -33 68 0 73 -1 68
-20 -5 -18 -14 -20 -109 -20 -99 0 -104 -1 -104 -21 0 -20 4 -21 114 -17 155
4 156 5 156 150 l0 108 -31 0 -31 0 4 -72 3 -73 -75 0 -75 0 -3 73 -3 72 -29
0 -30 0 0 -67z m237 -105 c-3 -8 -6 -5 -6 6 -1 11 2 17 5 13 3 -3 4 -12 1 -19z"/>
<path d="M1786 801 c-19 -21 -13 -47 15 -62 26 -14 59 5 59 34 0 46 -43 62
-74 28z m58 -14 c8 -13 7 -20 -4 -27 -24 -16 -45 -7 -47 20 -2 21 -1 22 5 5 8
-24 28 -30 36 -10 3 8 0 13 -7 11 -7 -1 -8 -1 -3 2 4 2 2 9 -5 14 -12 8 -12 9
0 6 8 -2 19 -12 25 -21z"/>
</g>
</svg>
