<?xml version="1.0" standalone="no"?>
<!DOCTYPE svg PUBLIC "-//W3C//DTD SVG 20010904//EN"
 "http://www.w3.org/TR/2001/REC-SVG-20010904/DTD/svg10.dtd">
<svg version="1.0" xmlns="http://www.w3.org/2000/svg"
 width="256.000000pt" height="256.000000pt" viewBox="0 0 256.000000 256.000000"
 preserveAspectRatio="xMidYMid meet">
<metadata>
Created by potrace 1.10, written by Peter Selinger 2001-2011
</metadata>
<g transform="translate(0.000000,256.000000) scale(0.100000,-0.100000)"
fill="#000000" stroke="none">
<path d="M248 1573 l-168 -97 0 -197 0 -196 170 -98 170 -97 170 97 170 98 0
197 0 197 -169 96 c-93 54 -170 97 -172 97 -2 0 -79 -44 -171 -97z m237 18
c131 -74 202 -116 218 -129 16 -14 17 -33 15 -186 l-3 -171 -45 -29 c-111 -70
-233 -136 -251 -136 -12 0 -33 8 -47 19 -15 10 -52 32 -82 48 -106 58 -135 75
-153 91 -15 13 -17 36 -17 182 0 147 2 169 18 182 16 15 99 64 192 116 25 13
49 28 55 33 16 16 49 9 100 -20z"/>
<path d="M370 1572 c0 -4 -17 -15 -37 -24 -64 -28 -167 -102 -181 -128 -9 -18
-12 -62 -10 -156 3 -154 1 -150 116 -217 109 -63 138 -77 164 -77 22 0 142 63
215 113 53 36 63 69 62 203 -1 126 -10 157 -53 184 -124 79 -190 110 -232 110
-24 0 -44 -3 -44 -8z m171 -79 l119 -68 0 -145 0 -145 -113 -65 c-61 -36 -117
-66 -123 -68 -6 -2 -63 28 -128 65 l-117 68 3 145 3 144 115 68 c63 37 117 68
119 68 2 0 57 -30 122 -67z"/>
<path d="M372 1514 c-23 -14 -42 -27 -42 -29 0 -2 20 -16 44 -30 l44 -26 46
28 45 28 -47 27 -48 27 -42 -25z"/>
<path d="M248 1440 c-47 -30 -48 -31 -48 -83 0 -51 1 -53 45 -80 25 -15 48
-27 51 -27 3 0 4 25 3 56 l-3 55 45 25 c24 14 45 27 47 29 2 2 -87 56 -92 55
0 0 -22 -14 -48 -30z m30 -62 c-32 -41 -45 -38 -34 6 5 22 44 48 59 39 4 -2
-7 -23 -25 -45z"/>
<path d="M492 1441 l-44 -28 46 -27 c44 -26 45 -28 48 -81 l3 -54 45 28 45 28
-3 54 c-3 52 -5 56 -45 79 -23 14 -44 26 -47 27 -3 1 -25 -11 -48 -26z m82
-34 c20 -15 30 -63 15 -73 -5 -3 -9 0 -9 7 0 7 -11 27 -26 46 -26 34 -15 46
20 20z"/>
<path d="M373 1372 c-42 -26 -42 -28 -43 -84 l0 -56 45 -27 45 -26 50 28 50
28 0 52 c0 51 -2 54 -41 78 -57 36 -59 36 -106 7z m85 -38 c44 -31 17 -104
-38 -104 -35 0 -53 22 -52 61 1 51 47 73 90 43z"/>
<path d="M200 1208 l0 -53 50 -28 50 -28 0 55 c0 54 -1 55 -43 81 -24 14 -47
25 -50 25 -4 0 -7 -24 -7 -52z"/>
<path d="M583 1234 c-42 -25 -43 -27 -43 -80 0 -30 2 -54 5 -54 3 0 23 12 45
26 35 23 40 31 40 65 0 20 3 44 6 53 8 22 -4 20 -53 -10z"/>
<path d="M330 1136 c0 -54 0 -54 45 -81 l45 -26 50 28 50 28 0 53 c0 28 -3 52
-6 52 -3 0 -25 -11 -49 -26 l-44 -25 -40 25 c-22 15 -43 26 -46 26 -3 0 -5
-24 -5 -54z m133 -38 c-20 -22 -56 -23 -77 -2 -9 8 -16 16 -16 18 0 1 24 2 54
2 51 -1 54 -2 39 -18z"/>
<path d="M1940 1315 c0 -131 2 -155 15 -155 13 0 15 24 15 155 0 131 -2 155
-15 155 -13 0 -15 -24 -15 -155z"/>
<path d="M873 1450 c-43 -17 -57 -82 -25 -118 9 -11 43 -27 74 -36 65 -18 80
-41 53 -82 -15 -23 -22 -25 -78 -23 -48 2 -62 0 -62 -12 0 -10 16 -15 63 -17
78 -4 108 13 118 63 9 51 -14 81 -77 99 -82 25 -100 54 -59 91 16 15 30 17 75
11 43 -5 55 -3 55 8 0 23 -92 34 -137 16z"/>
<path d="M2030 1440 c0 -13 7 -20 20 -20 13 0 20 7 20 20 0 13 -7 20 -20 20
-13 0 -20 -7 -20 -20z"/>
<path d="M1089 1351 c-25 -25 -29 -37 -29 -84 0 -40 6 -61 21 -81 19 -25 26
-27 82 -24 37 2 62 8 65 16 3 9 -13 12 -57 12 -49 0 -62 3 -71 19 -21 41 -14
46 60 43 l70 -4 0 31 c0 90 -81 132 -141 72z m95 -17 c9 -8 16 -24 16 -35 0
-16 -7 -19 -55 -19 -60 0 -67 9 -39 48 18 26 56 29 78 6z"/>
<path d="M1320 1367 c-36 -18 -51 -54 -47 -114 5 -74 27 -96 89 -91 l48 5 0
-48 c0 -37 4 -49 15 -49 13 0 15 23 15 149 l0 149 -31 6 c-45 9 -61 7 -89 -7z
m88 -94 l-3 -78 -43 -3 c-38 -3 -43 -1 -53 25 -14 37 -5 104 17 120 10 7 33
13 51 13 l34 0 -3 -77z"/>
<path d="M1760 1367 c-51 -26 -63 -144 -19 -188 25 -25 139 -28 139 -4 0 11
-13 15 -54 15 -55 0 -71 9 -78 44 -3 16 4 18 67 20 l70 1 -1 39 c-3 68 -63
104 -124 73z m78 -29 c5 -7 13 -23 16 -35 7 -22 5 -23 -53 -23 l-61 0 11 27
c6 15 16 31 22 35 19 12 53 9 65 -4z"/>
<path d="M2353 1370 c-39 -16 -60 -88 -43 -151 13 -48 33 -59 104 -59 43 0 56
3 56 15 0 11 -13 15 -54 15 -55 0 -71 9 -78 44 -3 17 3 19 71 17 l74 -2 -6 43
c-9 69 -62 103 -124 78z m81 -42 c28 -39 21 -48 -39 -48 -48 0 -55 3 -55 19 0
48 67 68 94 29z"/>
<path d="M1500 1287 c0 -114 10 -128 95 -125 l64 2 3 103 c3 92 1 103 -14 103
-15 0 -18 -13 -20 -87 l-3 -88 -39 -3 c-24 -2 -42 2 -47 10 -5 7 -9 48 -9 91
0 62 -3 77 -15 77 -12 0 -15 -16 -15 -83z"/>
<path d="M2030 1265 c0 -93 2 -105 18 -105 15 0 17 12 17 105 0 93 -2 105 -17
105 -16 0 -18 -12 -18 -105z"/>
<path d="M2110 1354 c0 -14 9 -16 60 -11 55 5 75 -2 50 -18 -18 -11 -110 -138
-110 -151 0 -11 19 -14 80 -14 64 0 80 3 80 15 0 12 -13 15 -60 15 l-61 0 61
78 c33 43 60 83 60 90 0 8 -24 12 -80 12 -67 0 -80 -3 -80 -16z"/>
</g>
</svg>
