<?xml version="1.0" standalone="no"?>
<!DOCTYPE svg PUBLIC "-//W3C//DTD SVG 20010904//EN"
 "http://www.w3.org/TR/2001/REC-SVG-20010904/DTD/svg10.dtd">
<svg version="1.0" xmlns="http://www.w3.org/2000/svg"
 width="225.000000pt" height="225.000000pt" viewBox="0 0 225.000000 225.000000"
 preserveAspectRatio="xMidYMid meet">
<metadata>
Created by potrace 1.10, written by Peter Selinger 2001-2011
</metadata>
<g transform="translate(0.000000,225.000000) scale(0.100000,-0.100000)"
fill="#fff" stroke="none">
<path d="M995 1677 c-158 -41 -295 -175 -329 -322 l-7 -30 42 42 c56 57 117
85 198 91 98 7 158 -24 275 -143 148 -148 254 -190 460 -184 103 4 117 7 181
38 117 58 212 175 239 294 6 26 5 26 -31 -13 -20 -23 -60 -53 -87 -68 -43 -22
-64 -27 -131 -27 -71 0 -86 3 -130 29 -27 16 -88 68 -135 115 -89 91 -161 136
-260 165 -75 23 -222 29 -285 13z"/>
<path d="M566 1118 c-139 -14 -278 -113 -335 -240 -16 -35 -32 -76 -35 -91 -6
-26 -5 -26 31 13 20 23 60 53 87 68 43 22 64 27 131 27 71 0 86 -3 130 -29 28
-16 88 -68 135 -115 122 -124 226 -174 389 -187 146 -12 267 31 367 130 58 59
103 134 118 201 l7 30 -42 -42 c-56 -57 -117 -85 -198 -91 -96 -6 -161 26
-261 129 -86 89 -155 138 -237 169 -68 25 -192 38 -287 28z"/>
</g>
</svg>
