 <svg  version="1.0" xmlns="http://www.w3.org/2000/svg"  width="300.000000pt" height="301.000000pt" viewBox="0 0 300.000000 301.000000"  preserveAspectRatio="xMidYMid meet">  <g transform="translate(0.000000,301.000000) scale(0.050000,-0.050000)" fill="#25a071" stroke="none"> <path d="M2895 5878 c-41 -9 -212 -97 -380 -194 -168 -98 -669 -387 -1115 -643 -870 -501 -945 -555 -991 -709 -44 -151 -43 -2643 2 -2775 52 -152 122 -200 1298 -879 1192 -688 1224 -703 1382 -660 126 34 2329 1311 2401 1392 108 122 108 118 108 1553 l0 1329 -52 104 c-69 139 128 15 -1758 1104 -534 309 -727 405 -798 398 -12 -1 -56 -10 -97 -20z"/> </g> </svg> 