 <svg  version="1.0" xmlns="http://www.w3.org/2000/svg"  width="323.000000pt" height="363.000000pt" viewBox="0 0 323.000000 363.000000"  preserveAspectRatio="xMidYMid meet">  <g transform="translate(0.000000,363.000000) scale(0.100000,-0.100000)" fill="#27a776" stroke="none"> <path d="M1545 3506 c-71 -31 -87 -120 -34 -181 37 -42 36 -59 -12 -208 -52 -162 -116 -223 -204 -197 -46 14 -137 102 -199 193 l-39 58 16 35 c24 49 21 68 -13 107 -36 42 -72 50 -122 30 -91 -36 -89 -150 3 -187 20 -8 40 -23 44 -33 4 -10 10 -72 13 -139 l4 -121 -27 -21 c-15 -12 -37 -22 -49 -22 -35 1 -107 38 -163 86 -51 44 -53 47 -47 84 6 34 3 43 -24 70 -41 40 -88 41 -125 2 -15 -16 -27 -39 -27 -54 0 -39 45 -88 80 -88 24 0 39 -12 83 -67 74 -93 108 -145 152 -233 21 -41 45 -83 53 -92 14 -17 60 -18 687 -18 627 0 673 1 687 18 8 9 34 53 56 97 23 44 78 128 122 188 70 92 85 107 110 107 35 0 80 50 80 89 0 67 -88 104 -144 60 -22 -17 -26 -28 -26 -69 0 -45 -3 -51 -47 -91 -50 -43 -134 -89 -166 -89 -10 0 -32 13 -48 29 -28 28 -29 33 -28 113 0 46 6 105 12 132 11 44 16 51 44 58 65 17 95 108 53 161 -42 53 -114 55 -167 5 -28 -26 -31 -87 -7 -123 15 -23 14 -26 -17 -72 -68 -100 -211 -213 -270 -213 -27 0 -66 37 -98 93 -27 48 -91 240 -91 275 0 8 16 32 35 53 40 45 44 78 15 126 -34 57 -94 76 -155 49z m114 -42 c42 -35 43 -82 1 -117 -16 -14 -34 -27 -40 -29 -23 -7 60 -270 110 -348 44 -69 81 -94 128 -86 79 12 251 163 299 263 15 29 15 33 -6 58 -27 36 -27 57 3 91 32 38 90 38 123 -1 13 -14 23 -35 23 -46 0 -28 -44 -69 -75 -69 -32 0 -41 -23 -60 -146 -25 -168 24 -260 129 -240 42 8 139 71 188 123 36 37 37 40 26 70 -10 28 -9 35 7 52 22 25 77 28 95 6 18 -22 15 -66 -6 -82 -10 -7 -30 -13 -45 -13 -21 0 -38 -14 -82 -67 -69 -85 -143 -200 -181 -281 l-30 -62 -670 1 -671 0 -32 68 c-41 85 -114 197 -182 279 -42 50 -57 62 -81 62 -63 0 -86 83 -28 104 59 21 109 -28 79 -76 -11 -17 -5 -26 49 -78 128 -124 251 -144 291 -48 19 46 17 169 -5 256 -15 59 -22 72 -38 72 -22 0 -60 18 -70 34 -17 24 -8 75 15 90 60 39 137 11 137 -51 0 -15 -9 -37 -21 -49 l-21 -23 53 -78 c71 -103 164 -196 212 -212 83 -28 160 19 209 126 26 59 88 261 88 290 0 7 -11 18 -24 23 -64 24 -71 105 -13 141 44 26 80 24 116 -7z"/> <path d="M677 2432 c-15 -16 -17 -52 -17 -298 0 -242 2 -283 16 -304 9 -14 133 -142 276 -286 l259 -260 -3 -77 -3 -77 -102 133 c-90 116 -102 137 -103 172 0 38 -7 47 -150 190 -147 147 -149 149 -170 130 -19 -17 -20 -29 -20 -246 l0 -228 262 -338 c144 -186 335 -434 425 -550 91 -117 168 -213 172 -213 4 0 15 8 24 18 15 17 17 75 17 622 l0 603 -280 281 -280 282 0 57 0 57 104 0 103 0 7 -61 c3 -34 6 -105 6 -157 l0 -95 147 -149 c81 -81 153 -148 160 -148 7 0 17 9 23 19 14 27 14 895 0 922 -10 18 -26 19 -434 19 -397 0 -424 -1 -439 -18z m855 -467 l3 -455 -142 142 -143 143 0 172 0 173 -140 0 -140 0 0 -82 0 -83 280 -280 280 -280 -2 -603 -3 -602 -417 540 -418 540 0 229 0 230 142 -145 c134 -137 142 -147 139 -181 -2 -24 3 -42 17 -56 10 -12 74 -93 141 -180 l121 -158 0 133 0 133 -280 280 -280 279 0 283 0 283 420 0 420 0 2 -455z"/> <path d="M1644 2429 c-18 -21 -19 -53 -18 -1115 0 -1037 1 -1094 18 -1113 30 -33 21 -42 229 232 l97 127 0 358 0 357 110 110 110 110 0 -275 c0 -237 2 -279 16 -298 16 -23 17 -23 36 -5 19 17 219 272 266 340 l22 31 0 564 c0 535 -1 566 -18 581 -17 15 -61 17 -434 17 -409 0 -415 0 -434 -21z m856 -574 l0 -566 -140 -180 -140 -181 0 316 c0 174 -2 316 -4 316 -2 0 -65 -59 -140 -131 l-136 -131 0 -367 0 -366 -135 -174 c-74 -96 -137 -176 -140 -179 -3 -3 -5 493 -5 1101 l0 1107 420 0 420 0 0 -565z"/> <path d="M1940 1916 l0 -224 140 142 140 141 0 83 0 82 -140 0 -140 0 0 -224z m240 121 l0 -62 -105 -105 -105 -105 0 168 0 167 105 0 105 0 0 -63z"/> </g> </svg> 