<?xml version="1.0" standalone="no"?>
<!DOCTYPE svg PUBLIC "-//W3C//DTD SVG 20010904//EN"
 "http://www.w3.org/TR/2001/REC-SVG-20010904/DTD/svg10.dtd">
<svg version="1.0" xmlns="http://www.w3.org/2000/svg"
 width="300.000000pt" height="337.000000pt" viewBox="0 0 300.000000 337.000000"
 preserveAspectRatio="xMidYMid meet">
<metadata>
Created by potrace 1.10, written by Peter Selinger 2001-2011
</metadata>
<g transform="translate(0.000000,337.000000) scale(0.100000,-0.100000)"
fill="#000000" stroke="none">
<path d="M1434 3266 c-77 -34 -97 -115 -44 -181 35 -44 35 -52 -7 -175 -48
-141 -85 -190 -148 -190 -55 0 -133 70 -209 187 -22 33 -26 45 -17 62 46 84
-41 180 -135 149 -39 -13 -84 -65 -84 -98 0 -26 42 -82 75 -100 36 -20 53 -73
54 -173 1 -60 -2 -71 -25 -93 -29 -30 -56 -27 -119 13 -74 47 -95 73 -95 116
0 53 -43 97 -95 97 -27 0 -44 -8 -66 -29 -53 -54 -27 -130 51 -151 33 -9 49
-24 97 -90 32 -44 79 -119 106 -167 26 -49 57 -96 68 -105 20 -17 65 -18 643
-18 l622 0 26 28 c14 15 43 62 66 104 66 125 146 226 195 247 84 37 104 96 52
151 -37 39 -82 40 -124 4 -26 -22 -31 -33 -31 -70 0 -41 -3 -46 -53 -83 -29
-22 -70 -48 -92 -56 -36 -16 -40 -15 -64 2 -32 25 -43 65 -36 133 11 99 22
126 56 141 36 14 69 62 69 100 0 60 -80 116 -140 99 -72 -21 -103 -80 -76
-145 16 -37 16 -38 -20 -86 -63 -86 -172 -169 -223 -169 -47 0 -119 129 -151
271 -12 55 -12 56 19 99 17 24 31 54 31 68 0 37 -39 93 -76 108 -41 17 -60 17
-100 0z m96 -41 c53 -27 53 -103 0 -130 -17 -9 -30 -21 -30 -28 0 -31 55 -208
83 -265 17 -34 48 -79 70 -99 33 -29 44 -34 71 -29 71 15 198 122 264 224 l34
54 -21 22 c-54 57 7 131 86 105 76 -25 55 -129 -26 -129 -22 0 -31 -23 -51
-140 -16 -91 -6 -146 35 -187 21 -21 43 -33 60 -33 42 0 111 39 177 100 58 53
60 56 48 82 -11 22 -10 30 1 44 33 40 94 32 105 -13 8 -31 -20 -63 -55 -63
-22 0 -41 -18 -103 -96 -41 -52 -97 -138 -124 -189 l-49 -95 -622 0 -623 0
-36 73 c-74 146 -199 307 -239 307 -24 0 -65 31 -65 48 0 25 34 52 64 52 43 0
60 -21 53 -64 -5 -32 -1 -39 53 -90 113 -108 213 -126 255 -46 20 38 19 151
-1 241 -14 62 -18 69 -40 69 -28 0 -74 41 -74 65 0 30 20 53 54 65 65 21 125
-35 96 -89 -6 -12 -15 -21 -20 -21 -19 0 -9 -23 40 -94 78 -113 116 -153 175
-181 117 -57 185 5 253 230 47 154 46 152 15 167 -40 19 -58 60 -41 95 14 29
50 53 81 53 10 0 31 -7 47 -15z"/>
<path d="M625 2264 l-25 -27 0 -255 c0 -240 1 -256 21 -292 l21 -38 -21 -29
c-21 -28 -22 -37 -19 -234 l3 -204 40 -55 c50 -69 505 -658 640 -829 106 -134
130 -150 159 -109 14 20 16 85 16 574 0 543 0 552 -21 578 l-20 26 20 26 c20
26 21 37 21 439 l0 412 -23 21 c-23 22 -27 22 -406 22 l-382 0 -24 -26z m795
-416 c0 -222 3 -414 6 -428 5 -18 -32 14 -130 110 l-136 135 0 163 0 163 -127
-3 -128 -3 -3 -74 -3 -75 261 -261 260 -260 -2 -562 -3 -562 -72 97 c-40 53
-214 279 -387 502 l-315 405 -1 216 0 217 133 -135 c120 -123 132 -138 132
-171 1 -31 17 -58 110 -178 61 -77 118 -151 127 -165 16 -23 17 -20 17 96 l1
121 -260 259 -260 259 0 268 0 268 390 0 390 0 0 -402z m-306 76 c3 -9 6 -65
6 -125 0 -84 -3 -109 -13 -109 -8 0 -46 33 -85 74 -70 72 -72 75 -72 125 l0
51 79 0 c63 0 80 -3 85 -16z m-76 -658 c30 -28 60 -63 68 -78 16 -31 19 -74 5
-83 -15 -9 -161 183 -161 212 0 30 6 27 88 -51z"/>
<path d="M1525 2266 l-25 -25 0 -1006 c0 -882 2 -1010 15 -1035 30 -59 60 -36
206 155 46 61 91 121 100 135 13 21 17 80 23 360 l7 335 77 78 c42 42 80 77
84 77 5 0 8 -101 8 -224 0 -211 1 -225 21 -250 11 -14 26 -26 33 -26 17 0 60
47 159 175 143 186 127 99 127 701 0 499 -1 523 -19 545 l-19 24 -386 3 -386
3 -25 -25z m795 -544 l0 -528 -114 -148 c-63 -81 -122 -158 -130 -169 -13 -20
-15 8 -15 278 l-1 300 -130 -130 -130 -130 0 -336 0 -337 -126 -163 c-69 -90
-128 -166 -130 -168 -2 -2 -4 460 -4 1027 l0 1032 390 0 390 0 0 -528z"/>
<path d="M1800 1776 l0 -211 130 130 130 130 0 80 0 80 -130 1 -130 0 0 -210z
m218 116 c3 -42 1 -46 -74 -123 -43 -43 -81 -79 -86 -79 -4 0 -8 56 -8 125 l0
126 83 -3 82 -3 3 -43z"/>
</g>
</svg>
