<?xml version="1.0" standalone="no"?>
<!DOCTYPE svg PUBLIC "-//W3C//DTD SVG 20010904//EN"
 "http://www.w3.org/TR/2001/REC-SVG-20010904/DTD/svg10.dtd">
<svg version="1.0" xmlns="http://www.w3.org/2000/svg"
 width="300.000000pt" height="337.000000pt" viewBox="0 0 300.000000 337.000000"
 preserveAspectRatio="xMidYMid meet">
<metadata>
Created by potrace 1.10, written by Peter Selinger 2001-2011
</metadata>
<g transform="translate(0.000000,337.000000) scale(0.100000,-0.100000)"
fill="#000000" stroke="none">
<path d="M1450 3233 c-70 -26 -68 -121 2 -146 14 -5 16 -13 12 -39 -10 -53
-65 -220 -86 -263 -46 -91 -115 -129 -183 -101 -63 27 -96 57 -171 158 -68 92
-87 128 -66 128 5 0 14 11 20 25 26 57 -38 108 -102 81 -65 -27 -52 -108 18
-121 32 -7 35 -10 50 -70 18 -74 21 -206 5 -238 -17 -34 -51 -57 -85 -57 -43
0 -125 44 -184 99 -49 46 -51 49 -44 88 5 35 3 43 -14 52 -27 14 -65 14 -80
-1 -7 -7 -12 -24 -12 -40 0 -29 23 -48 58 -48 38 0 165 -166 238 -310 l35 -70
622 0 622 0 47 93 c26 50 81 136 123 189 64 83 79 97 107 100 23 2 37 11 47
30 14 24 14 28 -3 47 -24 27 -68 27 -91 1 -16 -17 -16 -24 -6 -48 12 -26 11
-29 -47 -83 -64 -60 -132 -99 -174 -99 -36 0 -84 43 -98 86 -13 38 -8 120 13
213 11 49 15 54 51 66 44 15 56 29 56 66 0 59 -93 87 -131 40 -24 -30 -24 -52
2 -84 24 -32 20 -42 -51 -132 -69 -87 -161 -156 -227 -170 -69 -14 -150 105
-200 294 l-26 102 36 30 c48 39 50 76 6 113 -29 25 -57 31 -89 19z"/>
<path d="M640 1982 l0 -267 260 -260 260 -260 0 -115 c0 -136 14 -143 -149 69
-94 122 -111 149 -111 180 0 33 -11 47 -130 166 l-130 130 0 -215 1 -215 207
-266 c114 -147 288 -371 387 -499 l180 -233 3 559 2 559 -260 260 -260 260 0
65 c0 36 4 71 8 78 7 9 39 12 128 10 l119 -3 3 -160 2 -161 130 -129 130 -130
0 423 0 422 -390 0 -390 0 0 -268z"/>
<path d="M1547 2243 c-4 -3 -7 -466 -7 -1027 0 -1007 0 -1020 19 -1001 11 11
69 85 130 164 l111 144 0 336 0 336 130 130 130 129 2 -294 3 -295 127 165
128 165 0 528 0 527 -383 0 c-211 0 -387 -3 -390 -7z m480 -263 l33 0 0 -77 0
-78 -122 -122 c-68 -68 -126 -123 -130 -123 -10 0 -10 394 0 404 4 5 47 6 96
2 49 -3 104 -6 123 -6z"/>
</g>
</svg>
