<?xml version="1.0" standalone="no"?>
<!DOCTYPE svg PUBLIC "-//W3C//DTD SVG 20010904//EN"
 "http://www.w3.org/TR/2001/REC-SVG-20010904/DTD/svg10.dtd">
<svg version="1.0" xmlns="http://www.w3.org/2000/svg"
 width="300.000000pt" height="337.000000pt" viewBox="0 0 300.000000 337.000000"
 preserveAspectRatio="xMidYMid meet">
<metadata>
Created by potrace 1.10, written by Peter Selinger 2001-2011
</metadata>
<g transform="translate(0.000000,337.000000) scale(0.100000,-0.100000)"
fill="#000000" stroke="none">
<path d="M0 1685 l0 -1685 1500 0 1500 0 0 1685 0 1685 -1500 0 -1500 0 0
-1685z m1534 1581 c37 -15 76 -71 76 -108 0 -14 -14 -44 -31 -68 -31 -43 -31
-44 -19 -99 32 -142 104 -271 151 -271 51 0 160 83 223 169 36 48 36 49 20 86
-27 65 4 124 76 145 60 17 140 -39 140 -99 0 -38 -33 -86 -69 -100 -34 -15
-45 -42 -56 -141 -7 -68 4 -108 36 -133 24 -17 28 -18 64 -2 22 8 63 34 92 56
50 37 53 42 53 83 0 37 5 48 31 70 42 36 87 35 124 -4 52 -55 32 -114 -52
-151 -49 -21 -129 -122 -195 -247 -23 -42 -52 -89 -66 -104 l-26 -28 -622 0
c-578 0 -623 1 -643 18 -11 9 -42 56 -68 105 -27 48 -74 123 -106 167 -48 66
-64 81 -97 90 -78 21 -104 97 -51 151 22 21 39 29 66 29 52 0 95 -44 95 -97 0
-43 21 -69 95 -116 63 -40 90 -43 119 -13 23 22 26 33 25 93 -1 100 -18 153
-54 173 -33 18 -75 74 -75 100 0 33 45 85 84 98 94 31 181 -65 135 -149 -9
-17 -5 -29 17 -62 76 -117 154 -187 209 -187 63 0 100 49 148 190 42 123 42
131 7 175 -53 66 -33 147 44 181 40 17 59 17 100 0z m-97 -998 l23 -21 0 -412
c0 -402 -1 -413 -21 -439 l-20 -26 20 -26 c21 -26 21 -35 21 -578 0 -489 -2
-554 -16 -574 -29 -41 -53 -25 -159 109 -135 171 -590 760 -640 829 l-40 55
-3 204 c-3 197 -2 206 19 234 l21 29 -21 38 c-20 36 -21 52 -21 292 l0 255 25
27 24 26 382 0 c379 0 383 0 406 -22z m904 -7 c18 -22 19 -46 19 -545 0 -602
16 -515 -127 -701 -99 -128 -142 -175 -159 -175 -7 0 -22 12 -33 26 -20 25
-21 39 -21 250 0 123 -3 224 -8 224 -4 0 -42 -35 -84 -77 l-77 -78 -7 -335
c-6 -280 -10 -339 -23 -360 -9 -14 -54 -74 -100 -135 -146 -191 -176 -214
-206 -155 -13 25 -15 153 -15 1035 l0 1006 25 25 25 25 386 -3 386 -3 19 -24z"/>
<path d="M1440 3227 c-14 -7 -31 -25 -38 -40 -17 -35 1 -76 41 -95 31 -15 32
-13 -15 -167 -37 -122 -68 -184 -107 -218 -48 -40 -83 -43 -146 -12 -59 28
-97 68 -175 181 -49 71 -59 94 -40 94 5 0 14 9 20 21 29 54 -31 110 -96 89
-34 -12 -54 -35 -54 -65 0 -24 46 -65 74 -65 22 0 26 -7 40 -69 20 -90 21
-203 1 -241 -42 -80 -142 -62 -255 46 -54 51 -58 58 -53 90 7 43 -10 64 -53
64 -30 0 -64 -27 -64 -52 0 -17 41 -48 65 -48 40 0 165 -161 239 -307 l36 -73
623 0 622 0 49 95 c27 51 83 137 124 189 62 78 81 96 103 96 35 0 63 32 55 63
-11 45 -72 53 -105 13 -11 -14 -12 -22 -1 -44 12 -26 10 -29 -48 -82 -66 -61
-135 -100 -177 -100 -17 0 -39 12 -60 33 -41 41 -51 96 -35 187 20 117 29 140
51 140 81 0 102 104 26 129 -79 26 -140 -48 -86 -105 l21 -22 -34 -54 c-66
-102 -193 -209 -264 -224 -68 -13 -147 101 -198 286 -14 52 -26 101 -26 107 0
7 13 19 30 28 53 27 53 103 0 130 -35 18 -57 19 -90 2z"/>
<path d="M640 1982 l0 -268 260 -259 260 -259 -1 -121 c0 -116 -1 -119 -17
-96 -9 14 -66 88 -127 165 -93 120 -109 147 -110 178 0 33 -12 48 -132 171
l-133 135 0 -217 1 -216 315 -405 c173 -223 347 -449 387 -502 l72 -97 3 562
2 562 -260 260 -261 261 3 75 3 74 128 3 127 3 0 -163 0 -163 136 -135 c98
-96 135 -128 130 -110 -3 14 -6 206 -6 428 l0 402 -390 0 -390 0 0 -268z"/>
<path d="M950 1889 c0 -50 2 -53 72 -125 39 -41 77 -74 85 -74 10 0 13 25 13
109 0 60 -3 116 -6 125 -5 13 -22 16 -85 16 l-79 0 0 -51z"/>
<path d="M950 1317 c0 -29 146 -221 161 -212 14 9 11 52 -5 83 -13 25 -96 110
-138 141 -16 12 -18 11 -18 -12z"/>
<path d="M1540 1218 c0 -567 2 -1029 4 -1027 2 2 61 78 130 168 l126 163 0
337 0 336 130 130 130 130 1 -300 c0 -270 2 -298 15 -278 8 11 67 88 130 169
l114 148 0 528 0 528 -390 0 -390 0 0 -1032z m520 687 l0 -80 -130 -130 -130
-130 0 211 0 210 130 0 130 -1 0 -80z"/>
<path d="M1850 1815 c0 -69 4 -125 8 -125 5 0 43 36 86 79 75 77 77 81 74 123
l-3 43 -82 3 -83 3 0 -126z"/>
</g>
</svg>
