<?xml version="1.0" standalone="no"?>
<!DOCTYPE svg PUBLIC "-//W3C//DTD SVG 20010904//EN"
 "http://www.w3.org/TR/2001/REC-SVG-20010904/DTD/svg10.dtd">
<svg version="1.0" xmlns="http://www.w3.org/2000/svg"
 width="300.000000pt" height="337.000000pt" viewBox="0 0 300.000000 337.000000"
 preserveAspectRatio="xMidYMid meet">
<metadata>
Created by potrace 1.10, written by Peter Selinger 2001-2011
</metadata>
<g transform="translate(0.000000,337.000000) scale(0.100000,-0.100000)"
fill="#000000" stroke="none">
<path d="M0 1685 l0 -1685 1500 0 1500 0 0 1685 0 1685 -1500 0 -1500 0 0
-1685z m1539 1529 c44 -37 42 -74 -6 -113 l-36 -30 26 -102 c34 -127 78 -219
129 -265 34 -30 44 -34 71 -29 66 14 158 83 227 170 71 90 75 100 51 132 -26
32 -26 54 -2 84 38 47 131 19 131 -40 0 -37 -12 -51 -56 -66 -36 -12 -40 -17
-51 -66 -21 -93 -26 -175 -13 -213 14 -43 62 -86 98 -86 42 0 110 39 174 99
58 54 59 57 47 83 -10 24 -10 31 6 48 23 26 67 26 91 -1 17 -19 17 -23 3 -47
-10 -19 -24 -28 -47 -30 -28 -3 -43 -17 -107 -100 -42 -53 -97 -139 -123 -189
l-47 -93 -622 0 -622 0 -35 70 c-73 144 -200 310 -238 310 -35 0 -58 19 -58
48 0 16 5 33 12 40 15 15 53 15 80 1 17 -9 19 -17 14 -52 -7 -39 -5 -42 44
-88 59 -55 141 -99 184 -99 34 0 68 23 85 57 16 32 13 164 -5 238 -15 60 -18
63 -50 70 -70 13 -83 94 -18 121 64 27 128 -24 102 -81 -6 -14 -15 -25 -20
-25 -21 0 -2 -36 66 -128 75 -101 108 -131 171 -158 68 -28 137 10 183 101 21
43 76 210 86 263 4 26 2 34 -12 39 -70 25 -72 120 -2 146 32 12 60 6 89 -19z
m-119 -1386 l0 -423 -130 130 -130 129 -2 161 -3 160 -119 3 c-89 2 -121 -1
-128 -10 -4 -7 -8 -42 -8 -78 l0 -65 260 -260 260 -260 -2 -559 -3 -559 -180
233 c-99 128 -273 352 -387 499 l-207 266 -1 215 0 215 130 -130 c119 -119
130 -133 130 -166 0 -31 17 -58 111 -180 163 -212 149 -205 149 -69 l0 115
-260 260 -260 260 0 267 0 268 390 0 390 0 0 -422z m900 -105 l0 -528 -128
-165 -127 -165 -3 295 -2 294 -130 -129 -130 -130 0 -336 0 -336 -111 -144
c-61 -79 -119 -153 -130 -164 -19 -19 -19 -6 -19 1001 0 561 3 1024 7 1027 3
4 179 7 390 7 l383 0 0 -527z"/>
<path d="M1808 1984 c-10 -10 -10 -404 0 -404 4 0 62 55 130 123 l122 122 0
78 0 77 -33 0 c-19 0 -74 3 -123 6 -49 4 -92 3 -96 -2z"/>
</g>
</svg>
